<?xml version="1.0" ?><!DOCTYPE svg  PUBLIC '-//W3C//DTD SVG 1.1//EN'  'http://www.w3.org/Graphics/SVG/1.1/DTD/svg11.dtd'><svg enable-background="new 0 0 512 512" id="Layer_1" version="1.1" viewBox="0 0 512 512" xml:space="preserve" xmlns="http://www.w3.org/2000/svg" xmlns:xlink="http://www.w3.org/1999/xlink"><g id="XMLID_512_"><g id="XMLID_15_"><polyline fill="none" id="XMLID_45_" points="    358,130.6 496,130.6 496,466.1 16,466.1 16,130.6 154,130.6   " stroke="#000000" stroke-linecap="round" stroke-linejoin="round" stroke-miterlimit="10" stroke-width="10"/><g id="XMLID_40_"><rect fill="none" height="171.7" id="XMLID_38_" stroke="#000000" stroke-linecap="round" stroke-linejoin="round" stroke-miterlimit="10" stroke-width="10" width="171.7" x="63.7" y="184.9"/><line fill="none" id="XMLID_39_" stroke="#000000" stroke-linecap="round" stroke-linejoin="round" stroke-miterlimit="10" stroke-width="10" x1="281.8" x2="448.3" y1="216.4" y2="216.4"/><line fill="none" id="XMLID_41_" stroke="#000000" stroke-linecap="round" stroke-linejoin="round" stroke-miterlimit="10" stroke-width="10" x1="281.8" x2="448.3" y1="279.5" y2="279.5"/><line fill="none" id="XMLID_42_" stroke="#000000" stroke-linecap="round" stroke-linejoin="round" stroke-miterlimit="10" stroke-width="10" x1="281.8" x2="448.3" y1="342.6" y2="342.6"/><line fill="none" id="XMLID_43_" stroke="#000000" stroke-linecap="round" stroke-linejoin="round" stroke-miterlimit="10" stroke-width="10" x1="281.8" x2="448.3" y1="405.6" y2="405.6"/><line fill="none" id="XMLID_44_" stroke="#000000" stroke-linecap="round" stroke-linejoin="round" stroke-miterlimit="10" stroke-width="10" x1="63.7" x2="235.4" y1="405.6" y2="405.6"/></g><path d="    M296.2,86.1c0-22.2-18-40.2-40.2-40.2s-40.2,18-40.2,40.2H154V151h204V86.1H296.2z" fill="none" id="XMLID_46_" stroke="#000000" stroke-linecap="round" stroke-linejoin="round" stroke-miterlimit="10" stroke-width="10"/></g><g id="XMLID_406_"><path clip-rule="evenodd" d="    M83.6,356.6c0-36.5,29.6-66,66-66s66,29.6,66,66" fill="none" fill-rule="evenodd" id="XMLID_388_" stroke="#000000" stroke-linecap="round" stroke-linejoin="round" stroke-miterlimit="10" stroke-width="10"/><circle clip-rule="evenodd" cx="149.6" cy="251.4" fill="none" fill-rule="evenodd" id="XMLID_372_" r="39.1" stroke="#000000" stroke-linecap="round" stroke-linejoin="round" stroke-miterlimit="10" stroke-width="10"/></g></g></svg>