<?xml version="1.0" ?><svg data-name="Layer 1" id="Layer_1" viewBox="0 0 43.78955 72.59766" xmlns="http://www.w3.org/2000/svg"><defs><style>.cls-1{fill:none;}</style></defs><title/><path class="cls-1" d="M50.59619,18.769a7.06,7.06,0,0,0-7.05176,7.05176V42.44971h14.103V25.8208A7.05954,7.05954,0,0,0,50.59619,18.769Z" transform="translate(-28.70117 -11.0083)"/><path class="cls-1" d="M41.85693,25.8208a8.739,8.739,0,1,1,17.478,0V42.44971h4.38623V25.8208a13.125,13.125,0,0,0-26.25,0V42.44971h4.38574Z" transform="translate(-28.70117 -11.0083)"/><path class="cls-1" d="M52.52979,59.66748a3.19866,3.19866,0,1,0-3.86768.00049.84351.84351,0,0,1,.32031.8125L47.20557,70.91553h6.78125L52.20947,60.48047A.84433.84433,0,0,1,52.52979,59.66748Z" transform="translate(-28.70117 -11.0083)"/><path class="cls-1" d="M67.55518,44.13721H33.63672a3.25168,3.25168,0,0,0-3.248,3.248V78.67041a3.25168,3.25168,0,0,0,3.248,3.248H67.55518a3.25168,3.25168,0,0,0,3.248-3.248V47.38525A3.25167,3.25167,0,0,0,67.55518,44.13721ZM55.63184,72.30371a.84459.84459,0,0,1-.645.29932H46.20557a.84351.84351,0,0,1-.832-.98535l1.86425-10.94776a4.84314,4.84314,0,0,1-1.52832-3.54541,4.88672,4.88672,0,1,1,9.77344,0,4.84094,4.84094,0,0,1-1.52881,3.54541l1.86475,10.94776A.84536.84536,0,0,1,55.63184,72.30371Z" transform="translate(-28.70117 -11.0083)"/><path d="M55.48291,57.12451a4.88672,4.88672,0,1,0-9.77344,0,4.84314,4.84314,0,0,0,1.52832,3.54541L45.37354,71.61768a.84351.84351,0,0,0,.832.98535h8.78125a.84351.84351,0,0,0,.832-.98535L53.9541,60.66992A4.84094,4.84094,0,0,0,55.48291,57.12451Zm-1.49609,13.791H47.20557l1.77685-10.43506a.84351.84351,0,0,0-.32031-.8125,3.19979,3.19979,0,1,1,3.86768-.00049.84433.84433,0,0,0-.32032.813Z" transform="translate(-28.70117 -11.0083)"/><path d="M67.55518,42.44971H65.40869V25.8208a14.8125,14.8125,0,0,0-29.625,0V42.44971h-2.147a4.94086,4.94086,0,0,0-4.93555,4.93554V78.67041A4.94087,4.94087,0,0,0,33.63672,83.606H67.55518a4.94086,4.94086,0,0,0,4.93554-4.93555V47.38525A4.94085,4.94085,0,0,0,67.55518,42.44971ZM37.47119,25.8208a13.125,13.125,0,0,1,26.25,0V42.44971H59.335V25.8208a8.739,8.739,0,1,0-17.478,0V42.44971H37.47119ZM57.64746,42.44971h-14.103V25.8208a7.05152,7.05152,0,1,1,14.103,0Zm13.15576,36.2207a3.25168,3.25168,0,0,1-3.248,3.248H33.63672a3.25168,3.25168,0,0,1-3.248-3.248V47.38525a3.25168,3.25168,0,0,1,3.248-3.248H67.55518a3.25167,3.25167,0,0,1,3.248,3.248Z" transform="translate(-28.70117 -11.0083)"/></svg>